<svg width="35" height="35" viewBox="0 0 35 35" fill="none" xmlns="http://www.w3.org/2000/svg">
<path d="M5.46875 24.85L7.525 26.9062L10.1354 24.2812L8.07917 22.225L5.46875 24.85ZM16.3333 30.5521H19.25V26.25H16.3333V30.5521ZM6.125 13.125H1.75V16.0417H6.125V13.125ZM22.1667 7.01458V0H13.4167V7.01458C10.8063 8.53125 9.04167 11.3458 9.04167 14.5833C9.04167 19.4104 12.9646 23.3333 17.7917 23.3333C22.6188 23.3333 26.5417 19.4104 26.5417 14.5833C26.5417 11.3458 24.7771 8.53125 22.1667 7.01458ZM29.4583 13.125V16.0417H33.8333V13.125H29.4583ZM25.4333 24.2958L28.0438 26.9208L30.1 24.8646L27.475 22.2542L25.4333 24.2958Z" fill="#D77100"/>
</svg>
